<svg xmlns="http://www.w3.org/2000/svg" width="33.862" height="42.654" viewBox="0 0 33.862 42.654">
  <g id="Group_100" data-name="Group 100" transform="translate(-148.877 -337.222)">
    <path id="Shape_15" data-name="Shape 15" d="M16.93,42.654a.627.627,0,0,1-.444-.183c-3.949-3.928-12.533-13.786-14.7-18.1A16.585,16.585,0,0,1,0,16.841,16.95,16.95,0,0,1,28.9,4.933,16.783,16.783,0,0,1,32.08,24.37c-2.172,4.315-10.755,14.172-14.706,18.1A.627.627,0,0,1,16.93,42.654Zm0-41.406A15.652,15.652,0,0,0,1.255,16.841a15.361,15.361,0,0,0,1.65,6.97c2,3.983,10.041,13.274,14.025,17.33,3.984-4.057,12.023-13.348,14.026-17.33a15.54,15.54,0,0,0-2.942-18A15.611,15.611,0,0,0,16.93,1.248Z" transform="translate(148.877 337.222)" fill="#e7411a"/>
    <g id="Ellipse_14" data-name="Ellipse 14" transform="translate(159 346)" fill="#f6f8fb" stroke="#e7411a" stroke-width="1">
      <circle cx="7" cy="7" r="7" stroke="none"/>
      <circle cx="7" cy="7" r="6.5" fill="none"/>
    </g>
  </g>
</svg>
