<?xml version="1.0" encoding="utf-8"?>
<!-- Generator: Adobe Illustrator 26.1.0, SVG Export Plug-In . SVG Version: 6.00 Build 0)  -->
<svg version="1.1" id="katman_1" xmlns="http://www.w3.org/2000/svg" xmlns:xlink="http://www.w3.org/1999/xlink" x="0px" y="0px"
	 viewBox="0 0 100 100" style="enable-background:new 0 0 100 100;" xml:space="preserve">
<style type="text/css">
	.st0{fill:#FFFFFF;}
</style>
<g id="Page-1">
	<g id="_x30_29---Measuring-Area" transform="translate(-1 -1)">
		<path id="Shape" class="st0" d="M94.3,26H32.7C29,26,26,29,26,32.7v61.7c0,3.7,3,6.7,6.7,6.7h61.7c3.7,0,6.7-3,6.7-6.7V32.7
			C101,29,98,26,94.3,26z M97.7,32.7v61.7c0,0.3,0,0.6-0.1,0.9L65.9,63.5l31.7-31.7C97.6,32.1,97.7,32.4,97.7,32.7L97.7,32.7z
			 M94.3,29.3c0.3,0,0.6,0,0.9,0.1L63.5,61.1L31.8,29.5c0.3-0.1,0.6-0.1,0.9-0.1L94.3,29.3z M29.5,95.2c-0.1-0.3-0.1-0.6-0.1-0.9
			V32.7c0-0.3,0-0.6,0.1-0.9l31.7,31.7L29.5,95.2z M32.7,97.7c-0.3,0-0.6,0-0.9-0.1l31.7-31.7l31.7,31.7c-0.3,0.1-0.6,0.1-0.9,0.1
			L32.7,97.7z"/>
		<path id="Shape_00000148639653796270023410000015901233019252705703_" class="st0" d="M2.7,29.3h16.7c0.9,0,1.7-0.7,1.7-1.7
			S20.3,26,19.3,26H2.7C1.7,26,1,26.7,1,27.7S1.7,29.3,2.7,29.3z"/>
		<path id="Shape_00000090997252432934939770000003726401058638352047_" class="st0" d="M2.7,101h16.7c0.9,0,1.7-0.7,1.7-1.7
			s-0.7-1.7-1.7-1.7H2.7c-0.9,0-1.7,0.7-1.7,1.7S1.7,101,2.7,101z"/>
		<path id="Shape_00000145763413507808021250000014231554732785299109_" class="st0" d="M18.1,45.4c0.6,0.7,1.6,0.8,2.3,0.2
			c0.7-0.6,0.8-1.6,0.2-2.3l-8.3-10c-0.3-0.4-0.8-0.6-1.3-0.6c-0.5,0-1,0.2-1.3,0.6l-8.3,10C0.8,44,0.9,45,1.6,45.6
			c0.7,0.6,1.8,0.5,2.3-0.2l5.4-6.5v49.1l-5.4-6.5c-0.6-0.7-1.6-0.8-2.3-0.2S0.8,83,1.4,83.7l8.3,10c0.3,0.4,0.8,0.6,1.3,0.6
			s1-0.2,1.3-0.6l8.3-10c0.4-0.5,0.5-1.1,0.3-1.6c-0.2-0.6-0.7-1-1.3-1.1c-0.6-0.1-1.2,0.1-1.6,0.6l-5.4,6.5V38.9L18.1,45.4z"/>
		<path id="Shape_00000181787676963813416610000004655479209009877902_" class="st0" d="M99.3,1c-0.9,0-1.7,0.7-1.7,1.7v16.7
			c0,0.9,0.7,1.7,1.7,1.7c0.9,0,1.7-0.7,1.7-1.7V2.7C101,1.7,100.3,1,99.3,1z"/>
		<path id="Shape_00000179639261597323303110000005562688046566681759_" class="st0" d="M27.7,1C26.7,1,26,1.7,26,2.7v16.7
			c0,0.9,0.7,1.7,1.7,1.7c0.9,0,1.7-0.7,1.7-1.7V2.7C29.3,1.7,28.6,1,27.7,1z"/>
		<path id="Shape_00000067213603771374526430000011148192227744508857_" class="st0" d="M45.6,1.6C45.3,1.3,44.9,1,44.5,1
			c-0.4,0-0.9,0.1-1.2,0.4l-10,8.3c-0.4,0.3-0.6,0.8-0.6,1.3c0,0.5,0.2,1,0.6,1.3l10,8.3c0.5,0.4,1.1,0.5,1.6,0.3s1-0.7,1.1-1.3
			c0.1-0.6-0.1-1.2-0.6-1.6l-6.5-5.4h49.1l-6.5,5.4c-0.5,0.4-0.7,1-0.6,1.6s0.5,1.1,1.1,1.3c0.6,0.2,1.2,0.1,1.6-0.3l10-8.3
			c0.4-0.3,0.6-0.8,0.6-1.3c0-0.5-0.2-1-0.6-1.3l-10-8.3c-0.5-0.4-1.1-0.5-1.6-0.3s-1,0.7-1.1,1.3s0.1,1.2,0.6,1.6l6.5,5.4H38.9
			l6.5-5.4C46.1,3.4,46.2,2.3,45.6,1.6z"/>
	</g>
</g>
</svg>
