<svg id="icons_Q2" data-name="icons Q2" xmlns="http://www.w3.org/2000/svg" width="22.957" height="22.899" viewBox="0 0 22.957 22.899">
  <path id="Path_64" data-name="Path 64" d="M26.957,5.248V25.794a.172.172,0,0,1-.057.115,1.09,1.09,0,0,1-1.033,1.033H19.84V18.1h2.812c.172,0,.172,0,.23-.172l.172-1.435c.057-.574.115-1.148.23-1.722s0-.172-.115-.172H19.84V12.364c0-.172.057-.4.057-.574a1.033,1.033,0,0,1,.918-.918l.746-.115h1.722c.115,0,.115,0,.115-.115V7.716c0-.057,0-.115-.115-.115h-2.64A4.132,4.132,0,0,0,18.75,8a3.444,3.444,0,0,0-2.009,1.779,4.19,4.19,0,0,0-.459,2.066c-.057.861,0,1.779,0,2.7H13.355c-.115,0-.115.057-.115.115v3.271c0,.115,0,.115.115.115h2.927v8.838a.172.172,0,0,0-.057.115H5.09a1.09,1.09,0,0,1-1.033-1.033C4,25.966,4,25.909,4,25.852V5.248c0-.057,0-.115.057-.115A1.09,1.09,0,0,1,5.09,4.1H25.866A1.09,1.09,0,0,1,26.9,5.133Z" transform="translate(-4 -4.1)" fill="#01193c"/>
</svg>
