<svg xmlns="http://www.w3.org/2000/svg" width="34.974" height="33.957" viewBox="0 0 34.974 33.957">
  <path id="Shape_19" data-name="Shape 19" d="M384.654,458a1.728,1.728,0,0,1-1.735-1.716V450.53h-5.535a.5.5,0,0,1-.507-.5v-13a.5.5,0,0,1,.507-.5h5.535v-10.77a1.728,1.728,0,0,1,1.735-1.716H397.3a.506.506,0,0,1,.371.16l7.981,7.9a.5.5,0,0,1,.146.248v0l0,.013,0,.012h0a.5.5,0,0,1,.008.1v4.051h5.535a.5.5,0,0,1,.507.5v13a.5.5,0,0,1-.507.5h-5.535v5.749A1.728,1.728,0,0,1,404.074,458Zm-.722-1.716a.719.719,0,0,0,.722.715h19.42a.728.728,0,0,0,.723-.715v-6.241l-.067-3.777H383.982l-.05,3.776Zm21.3-11.02a.5.5,0,0,1,.507.492l.066,3.776h5.038v-12H377.89v12h5.036l.05-3.775a.5.5,0,0,1,.507-.494Zm-.431-8.734v-3.563h-6.272a1.728,1.728,0,0,1-1.734-1.717v-6.2H384.654a.718.718,0,0,0-.722.714v10.77Zm-6.994-5.28a.719.719,0,0,0,.722.715h5.556l-6.277-6.21Zm-10.4,22.374a.5.5,0,1,1,0-1h13.914a.5.5,0,1,1,0,1Zm0-3.318a.5.5,0,1,1,0-1h13.914a.5.5,0,1,1,0,1Zm8.861-7.338a.794.794,0,0,1-.816-.768v-.666a.793.793,0,0,1,.816-.766h.655a.794.794,0,0,1,.817.766v.666a.8.8,0,0,1-.817.768Zm-4.465,0a.794.794,0,0,1-.816-.768v-.666a.793.793,0,0,1,.816-.766h.655a.794.794,0,0,1,.817.766v.666a.8.8,0,0,1-.817.768Z" transform="translate(-376.877 -424.039)" fill="#e7411a"/>
</svg>
