<svg xmlns="http://www.w3.org/2000/svg" width="96.702" height="87.917" viewBox="0 0 96.702 87.917">
  <g id="icons_Q2" data-name="icons Q2" transform="translate(-2 -5.998)">
    <path id="Path_56" data-name="Path 56" d="M94.087,25.783H72.329V10.4A4.4,4.4,0,0,0,67.714,6H6.615A4.4,4.4,0,0,0,2,10.4V71.936a2.2,2.2,0,0,0,2.2,2.2,2.857,2.857,0,0,0,1.758-.659l20.22-19.121h2.2V69.739a4.4,4.4,0,0,0,4.615,4.4H74.527l20.22,19.121a2.857,2.857,0,0,0,1.758.659,2.2,2.2,0,0,0,2.2-2.2V30.179a4.4,4.4,0,0,0-4.615-4.4ZM22.659,45.563l-2.418,2.418-9.45,8.791V14.794H63.538V45.563ZM89.911,76.552l-9.45-8.791-2.418-2.418H37.164V54.354H67.714a4.4,4.4,0,0,0,4.615-4.4V34.574H89.911Z" transform="translate(0 0)" fill="#fff"/>
  </g>
</svg>
