<svg id="Health_Icons" data-name="Health Icons" xmlns="http://www.w3.org/2000/svg" width="84.806" height="81.011" viewBox="0 0 84.806 81.011">
  <g id="Group_19" data-name="Group 19">
    <path id="Path_57" data-name="Path 57" d="M82.951,55.054H80.638L49.029,23.445a3.662,3.662,0,0,0-5.4,0L32.26,34.816a1.927,1.927,0,0,1-2.7,0l-2.891-2.891,3.084-3.084h0L46.33,12.266,62.906,28.842A3.855,3.855,0,0,0,65.6,30H82.951a3.855,3.855,0,0,0,0-7.71h-15.8L49.029,4.171a3.662,3.662,0,0,0-5.4,0L25.514,22.288H5.855a3.855,3.855,0,0,0,0,7.71H18.576a5.4,5.4,0,0,0,1.349,5.975l4.24,4.24a9.637,9.637,0,0,0,13.492,0L46.33,31.54,76.4,61.607a3.855,3.855,0,0,0,2.7,1.156h3.855a3.855,3.855,0,1,0,0-7.71Z" transform="translate(-2 -2.985)" fill="#fff"/>
    <path id="Path_58" data-name="Path 58" d="M34.368,27.971a3.855,3.855,0,0,0-5.4,5.4L42.463,46.86a3.817,3.817,0,1,0,5.4-5.4Z" transform="translate(22.298 19.473)" fill="#fff"/>
    <path id="Path_59" data-name="Path 59" d="M28.368,30.971a3.855,3.855,0,0,0-5.4,5.4L36.463,49.86a3.817,3.817,0,1,0,5.4-5.4Z" transform="translate(16.734 22.255)" fill="#fff"/>
    <path id="Path_60" data-name="Path 60" d="M21.368,32.971a3.855,3.855,0,0,0-5.4,5.4L29.463,51.86a3.817,3.817,0,1,0,5.4-5.4Z" transform="translate(10.242 24.11)" fill="#fff"/>
    <path id="Path_61" data-name="Path 61" d="M12.408,31.156A3.855,3.855,0,0,0,9.71,30H5.855a3.855,3.855,0,1,0,0,7.71H8.168L28.213,57.755a3.817,3.817,0,1,0,5.4-5.4Z" transform="translate(-2 22.07)" fill="#fff"/>
  </g>
</svg>
