<svg id="icons_Q2" data-name="icons Q2" xmlns="http://www.w3.org/2000/svg" width="22.957" height="22.899" viewBox="0 0 22.957 22.899">
  <path id="Path_67" data-name="Path 67" d="M15.478,6.066h4.649a6.2,6.2,0,0,1,2.124.4,3.845,3.845,0,0,1,2.181,2.181,6.2,6.2,0,0,1,.4,2.124c.057,1.205.057,1.607.057,4.649s0,3.444-.057,4.649a6.2,6.2,0,0,1-.4,2.124,3.845,3.845,0,0,1-2.181,2.181,6.2,6.2,0,0,1-2.124.4h-9.3a6.2,6.2,0,0,1-2.124-.4,3.845,3.845,0,0,1-2.181-2.181,6.2,6.2,0,0,1-.4-2.124c-.057-1.205-.057-1.607-.057-4.649s0-3.444.057-4.649a6.2,6.2,0,0,1,.4-2.124A3.845,3.845,0,0,1,8.706,6.468a6.2,6.2,0,0,1,2.124-.4h4.649m0-2.066H10.772a10.273,10.273,0,0,0-2.812.517A5.739,5.739,0,0,0,5.951,5.951,4.878,4.878,0,0,0,4.631,7.96a8.322,8.322,0,0,0-.574,2.812C4,11.977,4,12.379,4,15.478s0,3.5.057,4.706A8.322,8.322,0,0,0,4.631,23a4.878,4.878,0,0,0,1.32,2.009,4.878,4.878,0,0,0,2.009,1.32,8.322,8.322,0,0,0,2.812.574h9.412A8.322,8.322,0,0,0,23,26.325a4.878,4.878,0,0,0,2.009-1.32A5.739,5.739,0,0,0,26.383,23a10.273,10.273,0,0,0,.517-2.812c.057-1.205.057-1.607.057-4.706s0-3.5-.057-4.706a10.273,10.273,0,0,0-.517-2.812,5.739,5.739,0,0,0-1.377-2.009A5.739,5.739,0,0,0,23,4.574a10.273,10.273,0,0,0-2.812-.517H15.478" transform="translate(-4 -4)" fill="#01193c"/>
  <path id="Path_68" data-name="Path 68" d="M19.611,13.7a5.911,5.911,0,1,0,5.911,5.911A5.911,5.911,0,0,0,19.611,13.7m0,9.757a3.845,3.845,0,1,1,3.845-3.845,3.845,3.845,0,0,1-3.845,3.845" transform="translate(-8.133 -8.133)" fill="#01193c"/>
  <path id="Path_69" data-name="Path 69" d="M35.055,12.277A1.377,1.377,0,1,1,33.677,10.9a1.377,1.377,0,0,1,1.377,1.377" transform="translate(-16.058 -6.94)" fill="#01193c"/>
</svg>
