<svg id="icons_Q2" data-name="icons Q2" xmlns="http://www.w3.org/2000/svg" width="22.899" height="22.901" viewBox="0 0 22.899 22.901">
  <path id="Path_63" data-name="Path 63" d="M25.235,4.1H5.722A1.664,1.664,0,0,0,4,5.764V25.334A1.664,1.664,0,0,0,5.722,27H25.235A1.664,1.664,0,0,0,26.9,25.334V5.764A1.664,1.664,0,0,0,25.235,4.1ZM10.83,23.613H7.386v-10.9H10.83Zm-1.722-12.4A2.009,2.009,0,0,1,7.157,9.207a1.951,1.951,0,0,1,3.9,0,2.009,2.009,0,0,1-1.951,2.009Zm14.405,12.4H20.127V18.275c0-1.263,0-2.87-1.779-2.87s-2.009,1.377-2.009,2.812v5.395H12.953v-10.9h3.214V14.2h.057a3.558,3.558,0,0,1,3.214-1.779c3.444,0,4.075,2.238,4.075,5.223Z" transform="translate(-4 -4.098)" fill="#01193c"/>
</svg>
