<?xml version="1.0" encoding="utf-8"?>
<!-- Generator: Adobe Illustrator 26.1.0, SVG Export Plug-In . SVG Version: 6.00 Build 0)  -->
<svg version="1.1" id="Capa_1" xmlns="http://www.w3.org/2000/svg" xmlns:xlink="http://www.w3.org/1999/xlink" x="0px" y="0px"
	 viewBox="0 0 100 100" style="enable-background:new 0 0 100 100;" xml:space="preserve">
<style type="text/css">
	.st0{fill:#FFFFFF;}
</style>
<g>
	<g>
		<g>
			<path class="st0" d="M66.7,66.1c10.6-16.7,9.3-14.6,9.6-15c3.9-5.5,5.9-11.9,5.9-18.6C82.2,14.6,67.8,0,50,0
				C32.3,0,17.8,14.6,17.8,32.4c0,6.7,2.1,13.3,6.1,18.8l9.4,14.8C23.2,67.6,6.1,72.2,6.1,82.4c0,3.7,2.4,9,14,13.1
				c8.1,2.9,18.7,4.5,30,4.5c21.1,0,43.9-6,43.9-17.6C93.9,72.2,76.8,67.6,66.7,66.1z M28.8,48c0-0.1-0.1-0.1-0.1-0.1
				c-3.3-4.6-5-10-5-15.5C23.6,17.8,35.4,5.9,50,5.9c14.5,0,26.4,11.9,26.4,26.6c0,5.5-1.7,10.7-4.8,15.2C71.3,48,72.7,45.7,50,81.4
				L28.8,48z M50,94.1c-23,0-38.1-6.8-38.1-11.7c0-3.3,7.7-8.8,24.9-10.9l10.8,16.9c0.5,0.8,1.5,1.4,2.5,1.4c1,0,1.9-0.5,2.5-1.4
				l10.8-16.9c17.1,2.1,24.9,7.6,24.9,10.9C88.1,87.3,73.2,94.1,50,94.1z"/>
		</g>
	</g>
	<g>
		<g>
			<path class="st0" d="M50,17.8c-8.1,0-14.6,6.6-14.6,14.6S41.9,47.1,50,47.1s14.6-6.6,14.6-14.6S58.1,17.8,50,17.8z M50,41.2
				c-4.8,0-8.8-3.9-8.8-8.8s3.9-8.8,8.8-8.8s8.8,3.9,8.8,8.8S54.8,41.2,50,41.2z"/>
		</g>
	</g>
</g>
</svg>
