<svg xmlns="http://www.w3.org/2000/svg" width="33.877" height="32.92" viewBox="0 0 33.877 32.92">
  <path id="Shape_20" data-name="Shape 20" d="M378.563,554.908h0a.5.5,0,0,1-.233-.057h0l-.006,0a.495.495,0,0,1-.257-.452v-19.94a.5.5,0,0,1,.2-.4L394.7,522.084a.5.5,0,0,1,.59,0l16.438,11.969a.5.5,0,0,1,.2.4V554.4a.494.494,0,0,1-.022.16v0l0,.008v0l0,.005,0,.008v0a.5.5,0,0,1-.467.321Zm31.476-.994L395,541.678l-15.039,12.236Zm.9-.552V535.676l-11.289,8.5Zm-31.876,0,11.289-9.185-11.289-8.5Zm12.085-9.832,3.537-2.878a.5.5,0,0,1,.634,0l3.536,2.877,11.9-8.959L395,523.1l-15.753,11.47Z" transform="translate(-378.062 -521.988)" fill="#e7411a"/>
</svg>
