<svg xmlns="http://www.w3.org/2000/svg" width="33.089" height="34.518" viewBox="0 0 33.089 34.518">
  <path id="Shape_16" data-name="Shape 16" d="M380.159,350.076c-5.912-7.841-8.168-15.971-5.137-18.511,1.807-1.515,2.019-1.6,2.263-1.622a.49.49,0,0,1,.544.456.5.5,0,0,1-.449.553c-.032.031-.436.316-1.724,1.394-2.242,1.879-.855,8.957,5.3,17.113,6.19,8.211,12.537,11.4,14.874,9.652a20.7,20.7,0,0,0,1.826-1.449.481.481,0,0,1,.676-.165.524.524,0,0,1,.166.706c-.108.184-.3.392-2.076,1.723a3.572,3.572,0,0,1-2.2.675C390.592,360.6,385.069,356.586,380.159,350.076Zm19.063,7.656a1.42,1.42,0,0,1-.951-.558l-5.467-7.25a1.476,1.476,0,0,1,.266-2.044l2.478-1.93a1.422,1.422,0,0,1,2.012.271l5.467,7.25a1.477,1.477,0,0,1-.266,2.045l-2.477,1.929a1.411,1.411,0,0,1-.869.3A1.531,1.531,0,0,1,399.222,357.732Zm-3.068-10.976-2.477,1.929a.451.451,0,0,0-.081.624l5.467,7.249h0a.435.435,0,0,0,.29.168.411.411,0,0,0,.323-.086l2.478-1.929a.442.442,0,0,0,.167-.3.448.448,0,0,0-.086-.328l-5.467-7.25a.434.434,0,0,0-.348-.174A.429.429,0,0,0,396.154,346.756Zm-12.272.421c-2.652-3.518-3.177-7.63-1.221-9.566a.492.492,0,0,1,.7.01.513.513,0,0,1-.009.717c-1.568,1.551-.989,5.162,1.318,8.222s5.588,4.566,7.469,3.433a.493.493,0,0,1,.683.176.511.511,0,0,1-.174.695,3.739,3.739,0,0,1-1.959.517C388.512,351.381,385.88,349.827,383.882,347.177Zm21.577-2.665a.509.509,0,0,1-.319-.639,13.1,13.1,0,0,0-.007-8.044,13.478,13.478,0,0,0-2.968-5.082,11.688,11.688,0,0,0-4.789-3.128,10.173,10.173,0,0,0-6.45.009.5.5,0,0,1-.628-.326.508.508,0,0,1,.32-.639,11.157,11.157,0,0,1,7.07-.008,12.7,12.7,0,0,1,5.2,3.392,14.5,14.5,0,0,1,3.194,5.468,14.111,14.111,0,0,1,.006,8.672.5.5,0,0,1-.474.349A.492.492,0,0,1,405.458,344.512Zm-5.365-2.679a.505.505,0,0,1-.414-.58,7.292,7.292,0,0,0-.212-3.188,7.571,7.571,0,0,0-1.85-3.172,5.617,5.617,0,0,0-3.065-1.654,4.427,4.427,0,0,0-2,.129.5.5,0,0,1-.62-.342.508.508,0,0,1,.337-.63,5.413,5.413,0,0,1,2.441-.158,6.6,6.6,0,0,1,3.61,1.935,8.487,8.487,0,0,1,2.105,3.6,8.314,8.314,0,0,1,.24,3.633.5.5,0,0,1-.492.427A.468.468,0,0,1,400.093,341.833Zm-16.514-4.144-5.467-7.25a1.478,1.478,0,0,1,.266-2.045l2.478-1.93a1.422,1.422,0,0,1,2.012.272l5.467,7.249a1.478,1.478,0,0,1-.266,2.045l-2.478,1.929a1.423,1.423,0,0,1-2.012-.27Zm-2.117-10.419-2.477,1.929a.439.439,0,0,0-.167.294.446.446,0,0,0,.086.329l5.467,7.25a.433.433,0,0,0,.613.082l2.478-1.929a.451.451,0,0,0,.081-.624l-5.467-7.25a.434.434,0,0,0-.614-.083Z" transform="translate(-373.677 -326.084)" fill="#e7411a"/>
</svg>
