<svg xmlns="http://www.w3.org/2000/svg" width="19.896" height="18.973" viewBox="0 0 19.896 18.973">
  <g id="icons_Q2" data-name="icons Q2" transform="translate(-3.574 -3.924)">
    <path id="Path_37" data-name="Path 37" d="M19.78,18.262A8.777,8.777,0,0,0,21.559,11.8a9.014,9.014,0,0,0-8.184-7.828A8.911,8.911,0,1,0,11.6,21.7a9.074,9.074,0,0,0,6.524-1.72l3.325,2.55a1.127,1.127,0,0,0,1.661,0h0a1.127,1.127,0,0,0,0-1.661Zm-5.99,1.068a6.524,6.524,0,0,1-7.473-7.591A6.405,6.405,0,0,1,11.6,6.46a6.464,6.464,0,0,1,7.532,7.532,6.583,6.583,0,0,1-5.338,5.338Z"/>
  </g>
</svg>
