<svg xmlns="http://www.w3.org/2000/svg" width="32.992" height="33.993" viewBox="0 0 32.992 33.993">
  <path id="Shape_18" data-name="Shape 18" d="M385.028,651.227a29.665,29.665,0,0,0-6.542-.844.5.5,0,0,1-.5-.5l.019-13.124a.5.5,0,0,1,.265-.442,23.2,23.2,0,0,1,4.222-1.5c4.255-1.24,9.547-2.782,13.322-8.057l1.787-4.814A1.48,1.48,0,0,1,399.09,621h.008a3.734,3.734,0,0,1,3.153,2.047,9.225,9.225,0,0,1-.2,6.013l-2.244,4.044a2.885,2.885,0,0,1,.314-.017h6.66a2.86,2.86,0,0,1,2.858,2.857v.383a2.855,2.855,0,0,0,1.339,4.921v.383a2.861,2.861,0,0,1-2.858,2.857h-.1a2.848,2.848,0,0,1,.885,2.065v.383a2.855,2.855,0,0,0-1.993,4.667v.383a2.861,2.861,0,0,1-2.858,2.857h-3.118l-5.441.149c-.1,0-.193,0-.289,0A17.056,17.056,0,0,1,385.028,651.227ZM398.546,622.3l-1.81,4.876a.577.577,0,0,1-.062.116c-3.979,5.6-9.712,7.273-13.9,8.493a25.909,25.909,0,0,0-3.764,1.284L379,649.393c2.2.09,6.114.568,6.7,1.083a15.852,15.852,0,0,0,9.775,3.508l2.314-.064a2.845,2.845,0,0,1-.761-1.939V651.6a2.854,2.854,0,0,0,.751-4.667v-.383a2.854,2.854,0,0,0-.408-4.921v-.383a1.765,1.765,0,0,0,.341-3.4c-1.17,2.869-3.073,4.58-5.682,5.1a.536.536,0,0,1-.1.01.5.5,0,0,1-.1-.994c2.684-.532,4.469-2.476,5.44-5.927v-.088a2.853,2.853,0,0,1,1.131-2.274.5.5,0,0,1,.061-.2l2.718-4.9a8.415,8.415,0,0,0,.135-5.169A2.773,2.773,0,0,0,399.1,622h-.005C398.655,622,398.576,622.215,398.546,622.3Zm-.521,29.3v.383a1.857,1.857,0,0,0,1.855,1.853h1.03l3.081-.085H404a.5.5,0,0,1,.26.073,1.856,1.856,0,0,0,1.644-1.841V651.6a1.857,1.857,0,0,0-1.455-1.81h-3.823a2.864,2.864,0,0,1-.5-.043h-.254A1.857,1.857,0,0,0,398.025,651.6Zm8.023-2.812a1.856,1.856,0,0,0,1.854-1.854v-.383a1.855,1.855,0,0,0-1.854-1.853h-5.418a1.856,1.856,0,0,0-1.855,1.853v.383a1.858,1.858,0,0,0,1.452,1.81h3.827a2.869,2.869,0,0,1,.5.044Zm-7.681-7.541v.383a1.857,1.857,0,0,0,1.855,1.853h7.9a1.857,1.857,0,0,0,1.855-1.853v-.383a1.856,1.856,0,0,0-1.855-1.853h-7.9A1.856,1.856,0,0,0,398.368,641.245Zm-.1-4.921a1.856,1.856,0,0,0,1.855,1.853h6.66a1.856,1.856,0,0,0,1.855-1.853v-.383a1.857,1.857,0,0,0-1.855-1.854h-6.66a1.857,1.857,0,0,0-1.634.976.5.5,0,0,1,0,.21q-.1.458-.22.889Z" transform="translate(-377.991 -620.998)" fill="#e7411a"/>
</svg>
