<?xml version="1.0" encoding="utf-8"?>
<!-- Generator: Adobe Illustrator 26.1.0, SVG Export Plug-In . SVG Version: 6.00 Build 0)  -->
<svg version="1.1" id="Layer_1" xmlns="http://www.w3.org/2000/svg" xmlns:xlink="http://www.w3.org/1999/xlink" x="0px" y="0px"
	 viewBox="0 0 100 100" style="enable-background:new 0 0 100 100;" xml:space="preserve">
<style type="text/css">
	.st0{fill:#FFFFFF;}
</style>
<g>
	<g>
		<g>
			<path class="st0" d="M93.8,96.6H91V8.4c0-0.9-0.8-1.7-1.7-1.7H57.9c-0.9,0-1.7,0.8-1.7,1.7v7.3h-3.4V8.4c0-0.9-0.8-1.7-1.7-1.7
				h-7.3V1.7c0-0.9-0.8-1.7-1.7-1.7s-1.7,0.8-1.7,1.7v5.1h-7.3c-0.9,0-1.7,0.8-1.7,1.7v7.3h-5.1c-0.9,0-1.7,0.8-1.7,1.7v14h-14
				c-0.9,0-1.7,0.8-1.7,1.7v63.5H6.2c-0.9,0-1.7,0.8-1.7,1.7s0.8,1.7,1.7,1.7h87.6c0.9,0,1.7-0.8,1.7-1.7S94.8,96.6,93.8,96.6z
				 M34.8,10.1h14.6v5.6H34.8V10.1z M29.2,96.6h-1.1v-2.8c0-0.9-0.8-1.7-1.7-1.7s-1.7,0.8-1.7,1.7v2.8h-1.1V91h5.6V96.6z M40.4,53.4
				v2.9v40.4h-7.9v-7.3c0-0.9-0.8-1.7-1.7-1.7h-9c-0.9,0-1.7,0.8-1.7,1.7v7.3h-7.9V34.8h28.1V53.4L40.4,53.4z M42.1,31.5h-14V19.1
				h28.1v32.6H43.8v-5.6h5.1c0.9,0,1.7-0.8,1.7-1.7c0-0.9-0.8-1.7-1.7-1.7h-5.1v-5.6h5.1c0.9,0,1.7-0.8,1.7-1.7
				c0-0.9-0.8-1.7-1.7-1.7h-5.1v-0.6C43.8,32.2,43.1,31.5,42.1,31.5z M71.9,96.6H43.8V56.3v-1.2h28.1V96.6z M87.6,96.6H75.3V53.4
				v-2.2c0-0.9-0.8-1.7-1.7-1.7c-0.9,0-1.7,0.8-1.7,1.7v0.6h-3.4v-0.6c0-0.9-0.8-1.7-1.7-1.7s-1.7,0.8-1.7,1.7v0.6h-5.6V17.4v-7.3
				h28.1L87.6,96.6L87.6,96.6z"/>
			<path class="st0" d="M51.1,93.3c0.9,0,1.7-0.8,1.7-1.7V60.1c0-0.9-0.8-1.7-1.7-1.7c-0.9,0-1.7,0.8-1.7,1.7v31.5
				C49.4,92.5,50.2,93.3,51.1,93.3z"/>
			<path class="st0" d="M57.9,93.3c0.9,0,1.7-0.8,1.7-1.7V60.1c0-0.9-0.8-1.7-1.7-1.7s-1.7,0.8-1.7,1.7v31.5
				C56.2,92.5,56.9,93.3,57.9,93.3z"/>
			<path class="st0" d="M64.6,93.3c0.9,0,1.7-0.8,1.7-1.7V60.1c0-0.9-0.8-1.7-1.7-1.7c-0.9,0-1.7,0.8-1.7,1.7v31.5
				C62.9,92.5,63.7,93.3,64.6,93.3z"/>
			<path class="st0" d="M66.9,21.3c0.9,0,1.7-0.8,1.7-1.7v-2.2c0-0.9-0.8-1.7-1.7-1.7c-0.9,0-1.7,0.8-1.7,1.7v2.2
				C65.2,20.6,65.9,21.3,66.9,21.3z"/>
			<path class="st0" d="M73.6,21.3c0.9,0,1.7-0.8,1.7-1.7v-2.2c0-0.9-0.8-1.7-1.7-1.7c-0.9,0-1.7,0.8-1.7,1.7v2.2
				C71.9,20.6,72.7,21.3,73.6,21.3z"/>
			<path class="st0" d="M80.3,21.3c0.9,0,1.7-0.8,1.7-1.7v-2.2c0-0.9-0.8-1.7-1.7-1.7c-0.9,0-1.7,0.8-1.7,1.7v2.2
				C78.7,20.6,79.4,21.3,80.3,21.3z"/>
			<path class="st0" d="M66.9,32.6c0.9,0,1.7-0.8,1.7-1.7v-2.2c0-0.9-0.8-1.7-1.7-1.7c-0.9,0-1.7,0.8-1.7,1.7v2.2
				C65.2,31.8,65.9,32.6,66.9,32.6z"/>
			<path class="st0" d="M73.6,32.6c0.9,0,1.7-0.8,1.7-1.7v-2.2c0-0.9-0.8-1.7-1.7-1.7c-0.9,0-1.7,0.8-1.7,1.7v2.2
				C71.9,31.8,72.7,32.6,73.6,32.6z"/>
			<path class="st0" d="M80.3,32.6c0.9,0,1.7-0.8,1.7-1.7v-2.2c0-0.9-0.8-1.7-1.7-1.7c-0.9,0-1.7,0.8-1.7,1.7v2.2
				C78.7,31.8,79.4,32.6,80.3,32.6z"/>
			<path class="st0" d="M66.9,43.8c0.9,0,1.7-0.8,1.7-1.7v-2.2c0-0.9-0.8-1.7-1.7-1.7c-0.9,0-1.7,0.8-1.7,1.7v2.2
				C65.2,43.1,65.9,43.8,66.9,43.8z"/>
			<path class="st0" d="M73.6,43.8c0.9,0,1.7-0.8,1.7-1.7v-2.2c0-0.9-0.8-1.7-1.7-1.7c-0.9,0-1.7,0.8-1.7,1.7v2.2
				C71.9,43.1,72.7,43.8,73.6,43.8z"/>
			<path class="st0" d="M80.3,43.8c0.9,0,1.7-0.8,1.7-1.7v-2.2c0-0.9-0.8-1.7-1.7-1.7c-0.9,0-1.7,0.8-1.7,1.7v2.2
				C78.7,43.1,79.4,43.8,80.3,43.8z"/>
			<path class="st0" d="M19.7,48.3c0.9,0,1.7-0.8,1.7-1.7v-2.2c0-0.9-0.8-1.7-1.7-1.7S18,43.5,18,44.4v2.2
				C18,47.6,18.7,48.3,19.7,48.3z"/>
			<path class="st0" d="M26.4,48.3c0.9,0,1.7-0.8,1.7-1.7v-2.2c0-0.9-0.8-1.7-1.7-1.7s-1.7,0.8-1.7,1.7v2.2
				C24.7,47.6,25.5,48.3,26.4,48.3z"/>
			<path class="st0" d="M33.1,48.3c0.9,0,1.7-0.8,1.7-1.7v-2.2c0-0.9-0.8-1.7-1.7-1.7s-1.7,0.8-1.7,1.7v2.2
				C31.5,47.6,32.2,48.3,33.1,48.3z"/>
			<path class="st0" d="M19.7,59.6c0.9,0,1.7-0.8,1.7-1.7v-2.2c0-0.9-0.8-1.7-1.7-1.7S18,54.7,18,55.6v2.2
				C18,58.8,18.7,59.6,19.7,59.6z"/>
			<path class="st0" d="M26.4,59.6c0.9,0,1.7-0.8,1.7-1.7v-2.2c0-0.9-0.8-1.7-1.7-1.7s-1.7,0.8-1.7,1.7v2.2
				C24.7,58.8,25.5,59.6,26.4,59.6z"/>
			<path class="st0" d="M33.1,59.6c0.9,0,1.7-0.8,1.7-1.7v-2.2c0-0.9-0.8-1.7-1.7-1.7s-1.7,0.8-1.7,1.7v2.2
				C31.5,58.8,32.2,59.6,33.1,59.6z"/>
			<path class="st0" d="M19.7,70.8c0.9,0,1.7-0.8,1.7-1.7v-2.2c0-0.9-0.8-1.7-1.7-1.7S18,65.9,18,66.9v2.2
				C18,70,18.7,70.8,19.7,70.8z"/>
			<path class="st0" d="M26.4,70.8c0.9,0,1.7-0.8,1.7-1.7v-2.2c0-0.9-0.8-1.7-1.7-1.7s-1.7,0.8-1.7,1.7v2.2
				C24.7,70,25.5,70.8,26.4,70.8z"/>
			<path class="st0" d="M33.1,70.8c0.9,0,1.7-0.8,1.7-1.7v-2.2c0-0.9-0.8-1.7-1.7-1.7s-1.7,0.8-1.7,1.7v2.2
				C31.5,70,32.2,70.8,33.1,70.8z"/>
			<path class="st0" d="M19.7,82c0.9,0,1.7-0.8,1.7-1.7v-2.2c0-0.9-0.8-1.7-1.7-1.7S18,77.2,18,78.1v2.2C18,81.3,18.7,82,19.7,82z"
				/>
			<path class="st0" d="M26.4,82c0.9,0,1.7-0.8,1.7-1.7v-2.2c0-0.9-0.8-1.7-1.7-1.7s-1.7,0.8-1.7,1.7v2.2C24.7,81.3,25.5,82,26.4,82
				z"/>
			<path class="st0" d="M33.1,82c0.9,0,1.7-0.8,1.7-1.7v-2.2c0-0.9-0.8-1.7-1.7-1.7s-1.7,0.8-1.7,1.7v2.2C31.5,81.3,32.2,82,33.1,82
				z"/>
			<path class="st0" d="M80.3,55.1c0.9,0,1.7-0.8,1.7-1.7v-2.2c0-0.9-0.8-1.7-1.7-1.7c-0.9,0-1.7,0.8-1.7,1.7v2.2
				C78.7,54.3,79.4,55.1,80.3,55.1z"/>
			<path class="st0" d="M80.3,66.3c0.9,0,1.7-0.8,1.7-1.7v-2.2c0-0.9-0.8-1.7-1.7-1.7c-0.9,0-1.7,0.8-1.7,1.7v2.2
				C78.7,65.5,79.4,66.3,80.3,66.3z"/>
			<path class="st0" d="M80.3,77.5c0.9,0,1.7-0.8,1.7-1.7v-2.2c0-0.9-0.8-1.7-1.7-1.7c-0.9,0-1.7,0.8-1.7,1.7v2.2
				C78.7,76.8,79.4,77.5,80.3,77.5z"/>
			<path class="st0" d="M80.3,88.8c0.9,0,1.7-0.8,1.7-1.7v-2.2c0-0.9-0.8-1.7-1.7-1.7c-0.9,0-1.7,0.8-1.7,1.7v2.2
				C78.7,88,79.4,88.8,80.3,88.8z"/>
			<path class="st0" d="M50.6,26.4c0-0.9-0.8-1.7-1.7-1.7H35.4c-0.9,0-1.7,0.8-1.7,1.7c0,0.9,0.8,1.7,1.7,1.7h13.5
				C49.8,28.1,50.6,27.3,50.6,26.4z"/>
		</g>
	</g>
</g>
</svg>
