<svg id="Icons" xmlns="http://www.w3.org/2000/svg" width="24.096" height="24.129" viewBox="0 0 24.096 24.129">
  <g id="Group_23" data-name="Group 23">
    <path id="Path_65" data-name="Path 65" d="M23.6,5.482A11.995,11.995,0,0,0,3.115,13.919a11.364,11.364,0,0,0,1.607,5.969L3,26.086l6.371-1.664a11.651,11.651,0,0,0,5.739,1.435A11.938,11.938,0,0,0,23.6,5.482ZM15.11,23.848a9.814,9.814,0,0,1-5.452-1.607L5.87,23.274,6.9,19.6a10.273,10.273,0,0,1-1.779-5.682,9.986,9.986,0,1,1,9.986,9.929Z" transform="translate(-3 -1.956)" fill="#48a715"/>
    <path id="Path_66" data-name="Path 66" d="M25.034,21.229a16.758,16.758,0,0,0-2.066-.976c-.23-.115-.459-.172-.631.115s-.8.976-.976,1.205a.459.459,0,0,1-.631.057,8.724,8.724,0,0,1-2.41-1.492,8.609,8.609,0,0,1-1.664-2.066.4.4,0,0,1,.115-.574l.459-.574a2.009,2.009,0,0,0,.287-.459.517.517,0,0,0,0-.517c-.115-.172-.689-1.607-.918-2.238s-.517-.517-.689-.517h-.574a.976.976,0,0,0-.8.4A3.157,3.157,0,0,0,13.5,16.064a5.969,5.969,0,0,0,1.205,3.1,13.657,13.657,0,0,0,5.108,4.477,9.412,9.412,0,0,0,1.722.631,3.673,3.673,0,0,0,1.894.115,2.9,2.9,0,0,0,2.009-1.377,2.352,2.352,0,0,0,.172-1.435A1.205,1.205,0,0,0,25.034,21.229Z" transform="translate(-7.472 -6.741)" fill="#48a715"/>
  </g>
</svg>
