<svg id="icons_Q2" data-name="icons Q2" xmlns="http://www.w3.org/2000/svg" width="25.252" height="17.677" viewBox="0 0 25.252 17.677">
  <path id="Path_70" data-name="Path 70" d="M26.736,10.755A3.157,3.157,0,0,0,24.5,8.517C22.546,8,14.626,8,14.626,8s-7.92,0-9.871.517a3.157,3.157,0,0,0-2.238,2.238A33.5,33.5,0,0,0,2,16.838a33.5,33.5,0,0,0,.517,6.084A3.157,3.157,0,0,0,4.755,25.16c1.951.517,9.871.517,9.871.517s7.92,0,9.871-.517a3.157,3.157,0,0,0,2.238-2.238,33.5,33.5,0,0,0,.517-6.084A33.5,33.5,0,0,0,26.736,10.755ZM12.1,20.626V13.05l6.543,3.788Z" transform="translate(-2 -8)" fill="#01193c"/>
</svg>
