<svg id="Group_9" data-name="Group 9" xmlns="http://www.w3.org/2000/svg" width="64.507" height="64.433" viewBox="0 0 64.507 64.433">
  <path id="Path_22" data-name="Path 22" d="M941.482,190.189v-9.962c-.506.2-.972.393-1.443.573-.952.364-1.6-.064-1.623-1.081-.017-.895-.005-1.79,0-2.684,0-1.077.084-1.2,1.059-1.609l24.486-10.19c.536-.223,1.06-.484,1.611-.659a.828.828,0,0,0,.668-.961c-.041-1.811-.018-3.624-.015-5.436,0-1.053.355-1.4,1.408-1.408,1.007,0,2.013-.009,3.019,0,.843.009,1.22.388,1.232,1.236.013.872.032,1.746-.008,2.616a.776.776,0,0,0,.549.85c7.263,3.392,14.51,6.819,21.786,10.183a2.1,2.1,0,0,1,1.423,2.241c-.063,5.144-.027,10.289-.027,15.434v.853c.844,0,1.621,0,2.4,0,1.253,0,1.544.287,1.544,1.533q0,12.784,0,25.568c0,.872.009,1.745,0,2.617-.013.927-.384,1.29-1.318,1.291q-4.26.007-8.521,0h-53c-1.4,0-1.658-.255-1.658-1.626q0-13.891,0-27.782c0-1.34.265-1.6,1.609-1.6Zm55.884,2.2H947.976v26.617h4.21V218.1q0-9.663,0-19.327c0-1.211.307-1.52,1.5-1.522q5.233,0,10.467,0c1.292,0,1.557.27,1.557,1.584q0,9.7,0,19.394v.79h4.027V218.2q0-9.7,0-19.395c0-1.245.3-1.554,1.539-1.554q11.036,0,22.074,0c1.271,0,1.566.3,1.566,1.594q0,9.7,0,19.395v.776h2.45Zm-31.181-22.443c-.168.059-.272.089-.372.131q-10.851,4.514-21.7,9.019a.674.674,0,0,0-.456.763c.009,3.243,0,6.486.007,9.729,0,.19.029.38.044.566h22.481Zm5.737,41.981h20.8V199.456h-20.8Zm-26.182,7.086V192.392h-8.517v26.625Zm47.717-28.858v-.7c0-5.033-.009-10.066.013-15.1a.883.883,0,0,0-.612-.942q-10.2-4.756-20.382-9.544c-.173-.081-.355-.141-.549-.217v26.5Zm-39.073,9.281v19.568h9.142V199.439Zm38.33,19.579v-1.5h-.808q-6.774,0-13.547,0a4.745,4.745,0,0,1-.867-.051,1.048,1.048,0,0,1,.036-2.062,4.634,4.634,0,0,1,.736-.032h14.449V214.16H971.927v1.217c.864,0,1.687-.029,2.507.008a1.044,1.044,0,0,1,.98,1.455,1.118,1.118,0,0,1-1.135.674c-.775,0-1.55,0-2.358,0v1.5Zm-23.028-28.858v-31.19H968.4v31.19Zm-3.533-23.491c-.265.1-.492.19-.716.282q-12.115,5.039-24.235,10.063c-.623.257-.765.584-.567,1.193.188-.07.375-.134.558-.21q12.177-5.061,24.361-10.11A.853.853,0,0,0,966.152,166.669Z" transform="translate(-935.042 -156.768)" fill="#8897b4"/>
  <path id="Path_23" data-name="Path 23" d="M970.36,206.869c-1.383,0-2.766,0-4.15,0-.793,0-1.264-.409-1.266-1.065s.472-1.075,1.26-1.077q4.183-.011,8.366,0a1.081,1.081,0,1,1,.006,2.141C973.17,206.875,971.765,206.868,970.36,206.869Z" transform="translate(-946.78 -175.591)" fill="#8897b4"/>
  <path id="Path_24" data-name="Path 24" d="M958.865,206.87c-1.1,0-1.614-.332-1.629-1.051-.015-.741.522-1.1,1.657-1.1,1.092,0,1.613.339,1.628,1.058C960.536,206.523,960.008,206.87,958.865,206.87Z" transform="translate(-943.754 -175.592)" fill="#8897b4"/>
  <path id="Path_25" data-name="Path 25" d="M1014.27,244.2c-1.25,0-2.5.006-3.749,0-.791-.005-1.26-.413-1.264-1.069s.464-1.072,1.252-1.074q3.815-.009,7.63,0c.806,0,1.256.394,1.26,1.062s-.451,1.075-1.248,1.081C1016.858,244.21,1015.564,244.2,1014.27,244.2Z" transform="translate(-964.174 -190.246)" fill="#8897b4"/>
  <path id="Path_26" data-name="Path 26" d="M1007.76,186.354q3.89,0,7.78,0c1.046,0,1.4.36,1.4,1.418q0,5.6,0,11.2c0,1.008-.366,1.376-1.373,1.377q-7.779.006-15.559,0c-.991,0-1.352-.345-1.354-1.316q-.011-5.669,0-11.337c0-1.011.355-1.342,1.394-1.344Q1003.9,186.35,1007.76,186.354Zm6.987,11.826V188.55h-13.9v9.631Z" transform="translate(-960.01 -168.382)" fill="#8897b4"/>
  <path id="Path_27" data-name="Path 27" d="M967.266,243.562a4.908,4.908,0,0,1,.053-.665.976.976,0,0,1,.926-.822.911.911,0,0,1,1.073.7,4.653,4.653,0,0,1,.01,1.646.908.908,0,0,1-1.05.73.97.97,0,0,1-.964-.854A5.971,5.971,0,0,1,967.266,243.562Z" transform="translate(-947.691 -190.252)" fill="#8897b4"/>
  <path id="Path_28" data-name="Path 28" d="M1009.468,197.727c-.282-.228-.706-.409-.83-.714a1.252,1.252,0,0,1,.109-1.094c1.149-1.243,2.353-2.437,3.58-3.6a.959.959,0,0,1,1.392.058,1.014,1.014,0,0,1,.07,1.447c-1.16,1.2-2.35,2.379-3.546,3.546A3.04,3.04,0,0,1,1009.468,197.727Z" transform="translate(-963.902 -170.615)" fill="#8897b4"/>
  <path id="Path_29" data-name="Path 29" d="M1017.63,197.1a3.529,3.529,0,0,1-.4.818c-.657.7-1.331,1.387-2.032,2.044a1.064,1.064,0,0,1-1.484-1.524,21.922,21.922,0,0,1,2.007-1.97,1.418,1.418,0,0,1,1.148-.188C1017.173,196.38,1017.374,196.811,1017.63,197.1Z" transform="translate(-965.792 -172.261)" fill="#8897b4"/>
</svg>
