<svg id="Group_6" data-name="Group 6" xmlns="http://www.w3.org/2000/svg" width="72.532" height="52.76" viewBox="0 0 72.532 52.76">
  <path id="Path_17" data-name="Path 17" d="M981.216,50.28c.49-.79,1.3-.714,2.152-.7,0-.461,0-.878,0-1.294,0-1.748.438-2.265,2.11-2.526a14.037,14.037,0,0,1,.355-2.409,14.028,14.028,0,0,1,1.084-2.035,2.263,2.263,0,0,0,.351-.939q.03-10.71.015-21.419V18.3c-1.232,0-2.4,0-3.574,0-.761,0-1.558.061-2.015-.721-.486-.831.045-1.479.461-2.136,2.672-4.219,5.356-8.431,8-12.665a3.032,3.032,0,0,1,2.806-1.548c7.036.018,14.071,0,21.107.021a1.332,1.332,0,0,0,1.242-.6,8.972,8.972,0,0,1,1.006-1.185,1.567,1.567,0,0,1,2.33,0,1.972,1.972,0,0,1,.373.424,2.8,2.8,0,0,0,2.864,1.377c6.657-.067,13.316-.015,19.974-.045a3.227,3.227,0,0,1,3.024,1.673c2.636,4.242,5.33,8.447,8,12.666.1.159.206.316.3.481a1.4,1.4,0,0,1-1.225,2.239c-1.107.052-2.219.014-3.328.016h-.9v31.28h3.442c.4,0,.8.017,1.2,0a1.516,1.516,0,0,1,1.369.7v.707a1.542,1.542,0,0,1-1.489.727q-34.777-.017-69.554,0a1.542,1.542,0,0,1-1.489-.727Zm49.036-29.7v.856q0,4.877,0,9.754a4.052,4.052,0,0,1-.034.775.95.95,0,0,1-.926.824.934.934,0,0,1-1.047-.657,2.957,2.957,0,0,1-.112-.9c-.007-3.629,0-7.257-.02-10.886a1.725,1.725,0,0,0-.349-1.009c-2.208-2.7-4.445-5.379-6.675-8.063-1.185-1.427-2.373-2.851-3.593-4.317-.2.23-.359.4-.506.576-3.239,3.9-6.484,7.793-9.7,11.711a2.028,2.028,0,0,0-.433,1.187q-.036,14.172-.019,28.345v.766h4.009v-.873q0-7.74,0-15.48A1.885,1.885,0,0,1,1013,31.025q4.427-.007,8.853,0c1.606,0,2.26.659,2.26,2.272q0,7.7,0,15.41v.836h4.009v-.8q0-5.69,0-11.38c0-.3-.045-.69.116-.888a1.845,1.845,0,0,1,1.011-.7.887.887,0,0,1,.964.842,4.8,4.8,0,0,1,.029.776q0,5.69,0,11.38v.755H1045.5V18.307h-.9c-.283,0-.567.01-.85,0-.784-.037-1.233-.436-1.228-1.078s.444-1.031,1.244-1.037c1.535-.011,3.069,0,4.6,0h2.347a7.952,7.952,0,0,1-.387-.708,1.645,1.645,0,0,0-1.817-1.041c-5.477.049-10.954.024-16.431.024h-.814a2.716,2.716,0,0,0,3.027,1.754,35.216,35.216,0,0,1,4.034-.024,1.024,1.024,0,0,1,1.156.977,1.057,1.057,0,0,1-1.1,1.128c-.281.025-.566.009-.849.01h-3.109c.529,1.561.006,2.268-1.59,2.274C1032.009,20.584,1031.184,20.581,1030.252,20.581ZM989.436,39.608a5.406,5.406,0,0,1,4.737.714,3.223,3.223,0,0,0,2.583.845,1.244,1.244,0,0,0,.919-.446,5.352,5.352,0,0,1,5.406-2.009,12.809,12.809,0,0,1,1.575.49V20.581h-1.468c-.472,0-.945.017-1.416-.006a1.333,1.333,0,0,1-1.307-1.981,2.042,2.042,0,0,0,.055-.237H989.436Zm23.589-6.43V49.525h8.914V33.178ZM989.055,8.522h18.6a2.272,2.272,0,0,0,2.334-1.7c-2.4,0-4.782,0-7.163,0a3.743,3.743,0,0,1-.979-.1.917.917,0,0,1-.692-1.021.932.932,0,0,1,.793-.947,4.365,4.365,0,0,1,.846-.05q4.107-.005,8.214,0a1.678,1.678,0,0,0,1.857-1.342H993.389c-1.211,0-1.292.058-1.8,1.342,1.063,0,2.091,0,3.12,0,.873,0,1.747-.009,2.618.034a.918.918,0,0,1,.921.973.936.936,0,0,1-.835,1.05,4.283,4.283,0,0,1-.773.061c-1.983,0-3.965,0-5.948.012a.984.984,0,0,0-.682.219A15.266,15.266,0,0,0,989.055,8.522Zm28.426-7.162-14.144,17.028a2.406,2.406,0,0,0,2.655-.884c3.354-4.167,6.807-8.254,10.224-12.37,1-1.2,1.524-1.213,2.5-.035,3.448,4.151,6.931,8.275,10.315,12.478a2.471,2.471,0,0,0,2.6.829ZM1004.711,45.8c0-1.231.016-2.356-.015-3.479a1.054,1.054,0,0,0-.322-.59,3.344,3.344,0,0,0-5.309.689c-.693,1.2-.738,1.223-2.051.9a2.109,2.109,0,0,0-2.608,1.809c-.051.457.05.693.589.684,1.649-.027,3.3-.01,4.948-.01Zm41.168-37.282a6.552,6.552,0,0,1-.389-.681,1.642,1.642,0,0,0-1.817-1.038c-5.965.044-11.931.023-17.9.023h-.95a8.968,8.968,0,0,1,.556.722,2.078,2.078,0,0,0,2.051,1c5.824-.047,11.648-.024,17.472-.024Zm-41.2,39.453H985.544v1.553h19.131Zm2.333-37.331h-18.14c-1.246,0-1.71.371-2.047,1.638a.394.394,0,0,0,.126.047q9.132.007,18.264,0a.759.759,0,0,0,.508-.166C1006.128,11.727,1006.5,11.253,1007.008,10.643Zm41.282,1.7a6.528,6.528,0,0,1-.38-.674c-.345-.87-.975-1.052-1.885-1.045-5.687.046-11.374.023-17.061.023h-.957c.749,1,1.258,1.773,2.667,1.744,5.566-.116,11.137-.048,16.706-.048ZM984.279,16.1a1.333,1.333,0,0,0,.273.082q8.743.006,17.487,0a.671.671,0,0,0,.45-.123c.431-.477.83-.982,1.264-1.507a1.255,1.255,0,0,0-.237-.077q-8.92-.007-17.841,0a.67.67,0,0,0-.486.188C984.867,15.107,984.593,15.591,984.279,16.1Zm37.706-12.734c.549.843.994,1.388,2.084,1.375,6.162-.07,12.324-.034,18.486-.034h.846a1.758,1.758,0,0,0-1.932-1.369c-6.209.055-12.419.027-18.628.027ZM993.247,42.256a3.388,3.388,0,0,0-5.41,3.5h4.18Z" transform="translate(-981.216 1.046)" fill="#8897b4"/>
  <path id="Path_18" data-name="Path 18" d="M1279.063,143.019c0-1.625-.006-3.251,0-4.876.006-1.518.673-2.174,2.209-2.18,1.156,0,2.313-.013,3.469,0a1.82,1.82,0,0,1,2.01,2.019q.021,5.053,0,10.105a1.86,1.86,0,0,1-2.064,2.052c-1.2.008-2.407.01-3.611,0a1.835,1.835,0,0,1-2.009-1.963C1279.045,146.458,1279.063,144.738,1279.063,143.019Zm2.159,4.946h3.354v-9.819h-3.354Z" transform="translate(-1226.315 -111.696)" fill="#8897b4"/>
  <path id="Path_19" data-name="Path 19" d="M1164.284,97.34c-.943,0-1.886.015-2.828,0a1.536,1.536,0,0,1-1.726-1.559,34.7,34.7,0,0,1,.041-4.3,4.024,4.024,0,0,1,3.827-3.838c2.587-.322,4.723.911,5.221,3.127a14.521,14.521,0,0,1,.167,2.666c.023.681.015,1.365,0,2.047a1.651,1.651,0,0,1-1.874,1.861C1166.17,97.348,1165.227,97.34,1164.284,97.34Zm2.563-2.155c0-1.224.044-2.375-.013-3.522a1.883,1.883,0,0,0-1.637-1.857,5.678,5.678,0,0,0-1.819.033,1.668,1.668,0,0,0-1.455,1.529c-.093,1.254-.024,2.521-.024,3.816Z" transform="translate(-1128.08 -71.893)" fill="#8897b4"/>
  <path id="Path_20" data-name="Path 20" d="M1049.463,143.087c0-1.649-.006-3.3,0-4.947.006-1.492.671-2.165,2.143-2.175,1.157-.007,2.313-.01,3.47,0a1.835,1.835,0,0,1,2.076,2.025q.021,5.053,0,10.105a1.86,1.86,0,0,1-2.069,2.047c-1.2.008-2.407.01-3.611,0a1.836,1.836,0,0,1-2-1.968C1049.445,146.479,1049.463,144.783,1049.463,143.087Zm5.527,4.9v-9.853h-3.358v9.853Z" transform="translate(-1037.373 -111.698)" fill="#8897b4"/>
  <path id="Path_21" data-name="Path 21" d="M1166.269,227.359c-.024.414-.017.839-.08,1.254a.917.917,0,0,1-.975.83.9.9,0,0,1-1.028-.841,19.543,19.543,0,0,1,0-2.522.9.9,0,0,1,.97-.841.943.943,0,0,1,1.036.852C1166.251,226.506,1166.245,226.93,1166.269,227.359Z" transform="translate(-1131.752 -185.167)" fill="#8897b4"/>
</svg>
