<svg id="Group_10" data-name="Group 10" xmlns="http://www.w3.org/2000/svg" width="84.803" height="52.76" viewBox="0 0 84.803 52.76">
  <path id="Path_30" data-name="Path 30" d="M1067.343,241.765a2.047,2.047,0,0,1-1.853.818q-40.548-.019-81.1,0a2.047,2.047,0,0,1-1.853-.818v-.827c.563-1.1,1.632-.79,2.592-.871.219-1.016-.38-2.63,1.387-2.561,1.575.061,1.023,1.523,1.206,2.525h5.426v-.979q0-9.133,0-18.266c0-1.551.345-1.9,1.888-1.9q12.627,0,25.255,0c1.588,0,1.894.3,1.894,1.879q0,9.133,0,18.266v1.015h5.5V239q0-9.092,0-18.183c0-1.642.289-1.933,1.924-1.933q12.586,0,25.172,0c1.612,0,1.941.33,1.942,1.931q0,9.092,0,18.183v1.036h5.474v-1q0-13.1,0-26.2c0-1.287.376-1.872,1.212-1.89.87-.018,1.273.587,1.273,1.917q0,13.059,0,26.117v1.063c.953.145,2.091-.252,2.652.891ZM995.67,224.14h23.966v-2.708H995.67Zm34.554-.021h23.968v-2.7h-23.968Zm-10.569,2.6H995.7v2.713h23.958Zm34.566,0h-23.968v2.7h23.968Zm-58.554,8.02h23.969v-2.705H995.667Zm34.557-.021h23.967v-2.693h-23.967Zm-10.566,2.626H995.694v2.687h23.964Zm10.58-.024v2.713h23.967v-2.713Z" transform="translate(-982.54 -189.824)" fill="#8897b4"/>
  <path id="Path_31" data-name="Path 31" d="M1067.343,123.656c-.636,1.2-1.606.9-2.653.483,0,.609.016,1.128,0,1.645a1.245,1.245,0,1,1-2.478.035c0-.082,0-.165,0-.248-.028-.735.207-1.67-.158-2.15s-1.331-.541-2.038-.769q-17.064-5.5-34.135-10.985a2.907,2.907,0,0,0-1.659-.056q-17.945,5.733-35.868,11.533c-.209.067-.415.145-.669.233v.99q0,13.719,0,27.437c0,1.269-.4,1.88-1.231,1.886s-1.253-.615-1.253-1.869q0-13.305,0-26.61v-1.067c-1.044.412-2.013.7-2.652-.486v-.661a5.215,5.215,0,0,1,1.325-.993q20.107-6.525,40.241-12.967a2.919,2.919,0,0,1,1.67,0q20.134,6.443,40.242,12.967a5.211,5.211,0,0,1,1.325.993Z" transform="translate(-982.54 -108.913)" fill="#8897b4"/>
  <path id="Path_32" data-name="Path 32" d="M1048.279,205.743q-6.288,0-12.576,0c-1.589,0-1.919-.341-1.92-1.953,0-1.4-.009-2.808,0-4.212.01-1.151.447-1.614,1.607-1.616q12.907-.015,25.814,0c1.181,0,1.6.429,1.61,1.594.016,1.486.011,2.973,0,4.459-.008,1.362-.359,1.723-1.716,1.725Q1054.691,205.751,1048.279,205.743Zm-3.986-5.257v2.729h8.006v-2.729Zm-2.591,0h-5.367v2.719h5.367Zm18.6.023h-5.385v2.674h5.385Z" transform="translate(-1023.171 -179.519)" fill="#8897b4"/>
  <path id="Path_33" data-name="Path 33" d="M1215.1,205.746q-6.288,0-12.576,0c-1.592,0-1.9-.306-1.9-1.87q0-1.941,0-3.882c0-1.73.3-2.034,2.006-2.034q6.329,0,12.659,0,6.205,0,12.41,0c1.606,0,1.961.353,1.963,1.929,0,1.376,0,2.753,0,4.129-.005,1.317-.4,1.724-1.732,1.726Q1221.517,205.754,1215.1,205.746Zm-3.978-2.531h8.021v-2.726h-8.021Zm16.009.019V200.5h-5.363v2.739Zm-18.594-2.747h-5.368v2.731h5.368Z" transform="translate(-1155.471 -179.522)" fill="#8897b4"/>
</svg>
