<svg id="Group_11" data-name="Group 11" xmlns="http://www.w3.org/2000/svg" width="64.412" height="64.433" viewBox="0 0 64.412 64.433">
  <path id="Path_34" data-name="Path 34" d="M1032.886,89.685c3,.189,4.929,1.78,5.386,4.409a6.914,6.914,0,0,1,.065,1.164q.008,3.733,0,7.467c0,1.247-.281,1.531-1.516,1.531h-52a4.886,4.886,0,0,1-.584-.011,1.025,1.025,0,0,1-.943-1.053,1,1,0,0,1,.931-1,4.933,4.933,0,0,1,.713-.014h51.271v-2.036H976.045v2.036h3.025c.39,0,.781-.02,1.168.011a1.008,1.008,0,0,1,.961,1.03.982.982,0,0,1-.967,1.021q-2.661.039-5.323,0a.9.9,0,0,1-.946-.9c-.007-3.092-.121-6.2.107-9.274a4.895,4.895,0,0,1,4.823-4.345c.292-.014.5-.011.63-.379a8.2,8.2,0,0,1,7.675-5.864,1.714,1.714,0,0,0,.239-.063v-.694q0-6.168,0-12.337a2.4,2.4,0,0,1,.088-.765.939.939,0,0,1,1.059-.671.967.967,0,0,1,.908.872,4.532,4.532,0,0,1,.019.713q0,9.155,0,18.31v.819h7.271V88.9q0-7.175,0-14.35c0-1.144.319-1.462,1.465-1.462h15.776c1.153,0,1.456.3,1.457,1.46q0,3.8,0,7.6c0,.839-.359,1.306-1,1.327-.661.022-1.074-.479-1.075-1.328,0-2.293,0-4.586,0-6.929h-6.192V89.657h6.192c0-.973-.016-1.96,0-2.946.019-.89.8-1.455,1.471-1.012a1.547,1.547,0,0,1,.574,1.043c.079.962.027,1.934.027,2.936h7.272v-.685q0-13.116.011-26.232a1.185,1.185,0,0,0-.5-1.028q-7.854-6.442-15.686-12.911c-.131-.108-.272-.205-.452-.34-1.209.993-2.411,1.977-3.61,2.965q-6.189,5.1-12.386,10.181a1.475,1.475,0,0,0-.633,1.364c.053.884.02,1.774.011,2.661-.008.728-.391,1.178-1,1.2-.625.021-1.064-.453-1.074-1.2-.012-.951,0-1.9,0-2.953h-.709c-1.753,0-3.506-.008-5.259,0a1.12,1.12,0,0,1-1.236-.728c-.2-.566.1-.941.512-1.281,3.361-2.795,6.706-5.607,10.086-8.379a1.849,1.849,0,0,0,.778-1.624c-.041-3.138-.019-6.276-.017-9.415,0-1.1.329-1.433,1.428-1.434,1.19,0,2.38-.007,3.571,0,.855.006,1.223.374,1.232,1.226s0,1.731,0,2.6,0,1.729,0,2.745c.26-.2.439-.321.605-.459q3.343-2.782,6.683-5.568c.895-.746,1.155-.751,2.069.011q12.144,10.117,24.289,20.233c.446.371.793.773.566,1.385s-.748.693-1.33.689c-1.925-.014-3.849-.005-5.824-.005V83.455a8.546,8.546,0,0,1,5.032,1.76A8.441,8.441,0,0,1,1032.886,89.685ZM984.239,60.492l.06.129c1.1,0,2.2.025,3.3-.016a1.644,1.644,0,0,0,.916-.341q4.68-3.811,9.329-7.661,3.708-3.053,7.414-6.107c.7-.578,1.046-.574,1.773.006.152.122.3.246.453.369q8.165,6.727,16.331,13.452c.131.108.282.271.426.274,1.26.022,2.52.012,3.952.012l-22.049-18.375Zm20.813,29.187V75.22H998.9v14.46Zm19.833-4.089v4.121c.655,0,1.259-.008,1.863,0,.815.013,1.193.381,1.2,1.189.011,1.318,0,2.637,0,3.956,0,1.032,0,2.064,0,3.128h8.287c0-1.2.083-2.368-.02-3.52a3.062,3.062,0,0,0-3.413-2.652c-1.459.2-1.576.12-1.882-1.363A6.188,6.188,0,0,0,1024.885,85.59Zm-40.564,12.4c0-.279,0-.513,0-.747,0-2.077,0-4.155,0-6.232,0-.927.374-1.289,1.3-1.3.6,0,1.192,0,1.775,0V85.572c-.182,0-.33-.01-.476,0a6.238,6.238,0,0,0-5.6,5.129c-.187,1.1-.565,1.36-1.65,1.15a3.048,3.048,0,0,0-3.616,2.681c-.112,1.13-.021,2.279-.021,3.454Zm2.093-.007h11.362V91.843H986.415Zm28.047,0h11.364V91.843h-11.364Zm-2.118-6.142h-12.4v1.989h12.4Zm0,4.157h-12.4v1.986h12.4ZM993.683,49.914c.635-.529,1.185-.941,1.672-1.417a1.288,1.288,0,0,0,.376-.8c.035-1.577.017-3.154.017-4.731v-.987h-2.065Z" transform="translate(-973.928 -39.827)" fill="#8897b4"/>
  <path id="Path_35" data-name="Path 35" d="M1105.054,127.32q-5,0-9.994,0c-1.049,0-1.387-.344-1.389-1.407,0-1.168-.049-2.34.025-3.5a1.971,1.971,0,0,1,.551-1.222c3.3-3.025,6.637-6.012,9.965-9.007.669-.6,1.1-.611,1.757-.021,3.348,3.006,6.7,6.006,10.02,9.042a1.866,1.866,0,0,1,.511,1.175c.066,1.208.028,2.422.023,3.633,0,.967-.355,1.309-1.345,1.31Q1110.116,127.323,1105.054,127.32Zm1.129-12.177v10.049h8.264a3.915,3.915,0,0,1,0-.631,3.241,3.241,0,0,0-1.415-3.3C1110.711,119.332,1108.519,117.245,1106.183,115.142Zm-2.164,10.067v-9.991a2.324,2.324,0,0,0-.257.166q-3.883,3.492-7.758,6.991a.7.7,0,0,0-.242.421c-.023.793-.011,1.588-.011,2.414Z" transform="translate(-1072.889 -99.253)" fill="#8897b4"/>
</svg>
