<svg id="katman_1" data-name="katman 1" xmlns="http://www.w3.org/2000/svg" viewBox="0 0 156.09 50"><defs><style>.cls-1{fill:#ea580c;}.cls-1,.cls-2{fill-rule:evenodd;}.cls-2,.cls-3{fill:#0e2149;}</style></defs><polygon class="cls-1" points="33.42 31.25 52.49 0 45.47 0 33.17 20.57 30.45 17.01 27.02 21.98 33.42 31.25"/><polygon class="cls-2" points="38.09 0 18.84 31.47 0 0 20.63 0 24.88 6.59 21.58 12.13 17.3 5.63 9.63 5.63 18.7 20.72 31.03 0 38.09 0"/><polygon class="cls-3" points="88.25 31.47 88.25 9.32 103.85 9.32 103.85 13.76 93.41 13.76 93.41 18.29 102.37 18.29 102.37 22.72 93.41 22.72 93.41 27.04 104 27.04 104 31.47 88.25 31.47"/><polygon class="cls-3" points="106.49 31.47 106.49 9.32 111.65 9.32 111.65 27.04 123.42 27.04 123.42 31.47 106.49 31.47"/><polygon class="cls-3" points="118.36 24.5 118.36 9.32 123.52 9.32 123.52 15.96 131.72 15.96 131.72 9.32 136.91 9.32 136.91 31.47 131.72 31.47 131.72 20.39 123.52 20.39 123.52 24.5 118.36 24.5"/><polygon class="cls-3" points="140.34 31.47 140.34 9.32 155.94 9.32 155.94 13.76 145.5 13.76 145.5 18.29 154.46 18.29 154.46 22.72 145.5 22.72 145.5 27.04 156.09 27.04 156.09 31.47 140.34 31.47"/><polygon class="cls-3" points="71.85 9.39 75.65 24.07 75.72 24.07 80.3 9.3 85.76 9.3 78.25 31.47 73.28 31.47 69.13 17.95 64.97 31.47 60 31.47 52.49 9.3 57.95 9.3 62.51 24.07 62.59 24.07 66.4 9.39 71.85 9.39"/><path class="cls-3" d="M153.7,47.72h.58a2,2,0,0,0,1.36-.39,1.6,1.6,0,0,0,.44-1.28v-.71a1.43,1.43,0,0,0-.33-1.06,1.83,1.83,0,0,0-1.13-.4l-.92-.09a.93.93,0,0,1-.63-.21.68.68,0,0,1-.18-.52v-.48a.93.93,0,0,1,.21-.67,1,1,0,0,1,.7-.21h.41a.92.92,0,0,1,.68.2.85.85,0,0,1,.21.64V43H156v-.55a1.46,1.46,0,0,0-.41-1.16,2,2,0,0,0-1.34-.36h-.56a2.1,2.1,0,0,0-1.39.37,1.66,1.66,0,0,0-.42,1.27v.67a1.36,1.36,0,0,0,.34,1,1.87,1.87,0,0,0,1.12.4l.9.09a1.11,1.11,0,0,1,.64.21.73.73,0,0,1,.18.55v.54a.87.87,0,0,1-.22.66,1,1,0,0,1-.71.21h-.42a.88.88,0,0,1-.67-.2.87.87,0,0,1-.21-.66v-.44h-1v.52a1.51,1.51,0,0,0,.42,1.2,2.1,2.1,0,0,0,1.37.37M148,46.49a.86.86,0,0,1-.68-.23,1,1,0,0,1-.21-.69V42.68a1,1,0,0,1,.21-.7.87.87,0,0,1,.68-.22h.45a1,1,0,0,1,.73.23,1.09,1.09,0,0,1,.22.74v2.74a1.1,1.1,0,0,1-.24.78,1,1,0,0,1-.75.24Zm0,3.51h.54a2.15,2.15,0,0,0,1.44-.41,1.74,1.74,0,0,0,.47-1.37V41.05h-1l0,.57h0a1.29,1.29,0,0,0-1.26-.69h-.46a1.74,1.74,0,0,0-1.24.37,1.65,1.65,0,0,0-.38,1.23v3.19a1.66,1.66,0,0,0,.38,1.23,1.74,1.74,0,0,0,1.24.37h.41a1.4,1.4,0,0,0,1.29-.63h0v1.54a1,1,0,0,1-.22.74.93.93,0,0,1-.73.23H148a1,1,0,0,1-.73-.22,1.12,1.12,0,0,1-.2-.73v-.32h-1v.4a1.63,1.63,0,0,0,.45,1.29A2.17,2.17,0,0,0,147.94,50Zm-7.73-2.41h1V42.78a1.1,1.1,0,0,1,.23-.78,1,1,0,0,1,.75-.24h.32a.88.88,0,0,1,.7.23,1,1,0,0,1,.22.72v4.88h1v-5a1.7,1.7,0,0,0-.39-1.25,1.77,1.77,0,0,0-1.26-.37h-.32a1.31,1.31,0,0,0-1.28.7h0l0-.58h-.95Zm-2.73,0h1V41.05h-1Zm-4.13-.71a.88.88,0,0,1-.68-.22,1.09,1.09,0,0,1-.2-.71V42.68a1,1,0,0,1,.2-.7.88.88,0,0,1,.68-.22h.46a1,1,0,0,1,.72.23,1,1,0,0,1,.22.73v3.14a1.1,1.1,0,0,1-.23.78,1,1,0,0,1-.75.24Zm-.3.84h.42a1.38,1.38,0,0,0,1.3-.71h0l0,.58h1v-9h-1v2.87h0a1.19,1.19,0,0,0-.48-.43,1.75,1.75,0,0,0-.76-.15h-.45a1.72,1.72,0,0,0-1.24.37,1.65,1.65,0,0,0-.39,1.23v3.58a1.67,1.67,0,0,0,.39,1.23A1.72,1.72,0,0,0,133.05,47.72Zm-4.25-.13h1v-9h-1Zm-2.73,0h1V41.05h-1Zm-4.35.13h.34a1.32,1.32,0,0,0,1.28-.71h0l0,.58h1V41.05h-1v4.81a1.1,1.1,0,0,1-.23.78,1,1,0,0,1-.75.24H122a.92.92,0,0,1-.7-.22,1.07,1.07,0,0,1-.21-.72V41.05h-1v5.09a1.59,1.59,0,0,0,.39,1.2A1.72,1.72,0,0,0,121.72,47.72Zm-4.26-3.12v1a1.22,1.22,0,0,1-.24.85,1.09,1.09,0,0,1-.82.26h-1.54V43.46h1.42a1.3,1.3,0,0,1,.91.25A1.17,1.17,0,0,1,117.46,44.6Zm-2.6-5.05h1.47a1.1,1.1,0,0,1,.82.25,1.2,1.2,0,0,1,.24.84v.75a1.27,1.27,0,0,1-.28.94,1.3,1.3,0,0,1-.92.26h-1.33ZM117.34,43v0a1.26,1.26,0,0,0,.87-.52,2.08,2.08,0,0,0,.29-1.2v-.78a1.75,1.75,0,0,0-.49-1.42,2.35,2.35,0,0,0-1.53-.41h-2.73v9h2.84a2.68,2.68,0,0,0,1.18-.21,1.4,1.4,0,0,0,.63-.62,2.59,2.59,0,0,0,.2-1.09v-1a2.14,2.14,0,0,0-.3-1.17A1.38,1.38,0,0,0,117.34,43Zm-9,4.58h1v-9h-1Zm-3.83-5.89h.27a1,1,0,0,1,.77.24,1.16,1.16,0,0,1,.23.79v1.09h-2.25V42.73a1.17,1.17,0,0,1,.22-.79A1,1,0,0,1,104.56,41.7Zm2.26,2.85V42.69a1.7,1.7,0,0,0-.47-1.35,2.2,2.2,0,0,0-1.48-.41h-.36a2.77,2.77,0,0,0-1.2.22,1.21,1.21,0,0,0-.61.67,3,3,0,0,0-.16,1v3.1A2.1,2.1,0,0,0,102.8,47a1.38,1.38,0,0,0,.68.54,2.82,2.82,0,0,0,1,.16H105a2.17,2.17,0,0,0,1.42-.38,1.6,1.6,0,0,0,.44-1.28v-.5h-1V46a.78.78,0,0,1-.92.92h-.37a1,1,0,0,1-.76-.24,1.12,1.12,0,0,1-.22-.78V44.55Zm-8-2.85h.26a1,1,0,0,1,.77.24,1.11,1.11,0,0,1,.23.79v1.09H97.82V42.73a1.16,1.16,0,0,1,.23-.79A1,1,0,0,1,98.81,41.7Zm2.26,2.85V42.69a1.71,1.71,0,0,0-.48-1.35,2.16,2.16,0,0,0-1.48-.41h-.35a2.71,2.71,0,0,0-1.2.22,1.17,1.17,0,0,0-.61.67,2.71,2.71,0,0,0-.16,1v3.1A2.1,2.1,0,0,0,97.05,47a1.35,1.35,0,0,0,.67.54,2.88,2.88,0,0,0,1,.16h.44a2.2,2.2,0,0,0,1.43-.38,1.64,1.64,0,0,0,.44-1.28v-.5h-1V46a1,1,0,0,1-.22.71,1,1,0,0,1-.71.21h-.36a1,1,0,0,1-.76-.24,1.12,1.12,0,0,1-.23-.78V44.55Zm-6,3.14a3.53,3.53,0,0,0,.73-.09v-.81a1.32,1.32,0,0,1-.45.05,1.08,1.08,0,0,1-.68-.18.82.82,0,0,1-.22-.62V41.85h1.45v-.8H94.44V39.32h-1v1.73h-.87v.8h.87v4.34a1.39,1.39,0,0,0,.43,1.14A1.84,1.84,0,0,0,95.06,47.69Zm-6.06,0h.55a2.33,2.33,0,0,0,1.61-.47,2,2,0,0,0,.51-1.57v-1a2.79,2.79,0,0,0-.18-1.17,1.15,1.15,0,0,0-.56-.55,4.54,4.54,0,0,0-1.13-.31L89,42.49c-.54-.09-.86-.23-1-.4a1.62,1.62,0,0,1-.14-.72v-.8a1.3,1.3,0,0,1,.24-.88,1.11,1.11,0,0,1,.86-.27h.44a1.08,1.08,0,0,1,.86.28,1.3,1.3,0,0,1,.25.91v.64h1v-.79A1.9,1.9,0,0,0,91.1,39a2.42,2.42,0,0,0-1.63-.46H89a2.41,2.41,0,0,0-1.65.47,2,2,0,0,0-.52,1.57v.88A2.77,2.77,0,0,0,87,42.59a1.09,1.09,0,0,0,.55.55,4.25,4.25,0,0,0,1.1.31l.77.14a1.84,1.84,0,0,1,.93.33,1.07,1.07,0,0,1,.22.79v1a1.23,1.23,0,0,1-.25.85,1.19,1.19,0,0,1-.86.26H89a1.17,1.17,0,0,1-.88-.27,1.4,1.4,0,0,1-.24-.91v-.78H86.81v.83a2,2,0,0,0,.51,1.57A2.46,2.46,0,0,0,89,47.72Zm-8.59-.84a.87.87,0,0,1-.68-.22,1,1,0,0,1-.21-.71V42.68a1,1,0,0,1,.21-.7.87.87,0,0,1,.68-.22h.45a1,1,0,0,1,.73.23,1.08,1.08,0,0,1,.22.73v3.14a1.15,1.15,0,0,1-.23.78,1,1,0,0,1-.76.24Zm-.31.84h.42a1.37,1.37,0,0,0,1.3-.71h0l0,.58h1v-9h-1v2.87h0a1.19,1.19,0,0,0-.48-.43,1.78,1.78,0,0,0-.76-.15H80.1a1.74,1.74,0,0,0-1.24.37,1.65,1.65,0,0,0-.38,1.23v3.58a1.66,1.66,0,0,0,.38,1.23A1.74,1.74,0,0,0,80.1,47.72Zm-7.45-.13h1V42.78A1.1,1.1,0,0,1,73.9,42a1,1,0,0,1,.75-.24H75a.88.88,0,0,1,.7.23,1,1,0,0,1,.22.72v4.88h1v-5a1.7,1.7,0,0,0-.39-1.25,1.77,1.77,0,0,0-1.26-.37h-.32a1.31,1.31,0,0,0-1.28.7h0l0-.58h-1Zm-2.71-2.93v1.23a1.09,1.09,0,0,1-.24.77,1,1,0,0,1-.76.26h-.35a.9.9,0,0,1-.68-.23,1.1,1.1,0,0,1-.2-.73v-.35a.81.81,0,0,1,1-1Zm-.8-3.73h-.53a2,2,0,0,0-1.35.36,1.52,1.52,0,0,0-.41,1.2V43h.94v-.46a.8.8,0,0,1,.21-.62.94.94,0,0,1,.67-.2H69a.94.94,0,0,1,.71.22.89.89,0,0,1,.21.65v1.34H68.41a1.83,1.83,0,0,0-1.31.4,1.77,1.77,0,0,0-.42,1.32v.4a1.79,1.79,0,0,0,.39,1.26,1.69,1.69,0,0,0,1.25.41h.38A1.32,1.32,0,0,0,70,47h0l0,.56H71v-5a1.62,1.62,0,0,0-.43-1.27A2.09,2.09,0,0,0,69.14,40.93Zm-8.84,6a.88.88,0,0,1-.68-.22,1.09,1.09,0,0,1-.2-.71V42.68a1,1,0,0,1,.2-.7.88.88,0,0,1,.68-.22h.46a1,1,0,0,1,.72.23,1,1,0,0,1,.22.73v3.14a1.1,1.1,0,0,1-.23.78,1,1,0,0,1-.75.24Zm-.3.84h.42a1.38,1.38,0,0,0,1.3-.71h0l0,.58h1v-9h-1v2.87h0a1.19,1.19,0,0,0-.48-.43,1.75,1.75,0,0,0-.76-.15H60a1.72,1.72,0,0,0-1.24.37,1.65,1.65,0,0,0-.39,1.23v3.58a1.67,1.67,0,0,0,.39,1.23A1.72,1.72,0,0,0,60,47.72Zm-5.34-6h.27a1,1,0,0,1,.77.24,1.17,1.17,0,0,1,.22.79v1.09H53.68V42.73a1.17,1.17,0,0,1,.22-.79A1,1,0,0,1,54.66,41.7Zm2.26,2.85V42.69a1.74,1.74,0,0,0-.47-1.35A2.21,2.21,0,0,0,55,40.93h-.35a2.71,2.71,0,0,0-1.2.22,1.17,1.17,0,0,0-.61.67,2.71,2.71,0,0,0-.16,1v3.1A2.1,2.1,0,0,0,52.9,47a1.33,1.33,0,0,0,.68.54,2.79,2.79,0,0,0,1,.16h.44a2.2,2.2,0,0,0,1.43-.38,1.64,1.64,0,0,0,.44-1.28v-.5H56V46a.78.78,0,0,1-.92.92h-.37a1,1,0,0,1-.76-.24,1.12,1.12,0,0,1-.22-.78V44.55Zm-6,3.14a3.45,3.45,0,0,0,.73-.09v-.81a1.32,1.32,0,0,1-.45.05,1,1,0,0,1-.67-.18.79.79,0,0,1-.23-.62V41.85h1.46v-.8H50.29V39.32h-1v1.73H48.4v.8h.87v4.34a1.39,1.39,0,0,0,.43,1.14A1.84,1.84,0,0,0,50.91,47.69Zm-4.55-3v1.23a1.1,1.1,0,0,1-.25.77,1,1,0,0,1-.76.26H45a.91.91,0,0,1-.69-.23,1.1,1.1,0,0,1-.2-.73v-.35a.81.81,0,0,1,1-1Zm-.81-3.73H45a2,2,0,0,0-1.35.36,1.52,1.52,0,0,0-.41,1.2V43h.94v-.46a.8.8,0,0,1,.21-.62,1,1,0,0,1,.67-.2h.36a.93.93,0,0,1,.7.22.85.85,0,0,1,.22.65v1.34H44.82a1.83,1.83,0,0,0-1.31.4,1.77,1.77,0,0,0-.42,1.32v.4a1.75,1.75,0,0,0,.4,1.26,1.65,1.65,0,0,0,1.24.41h.38A1.31,1.31,0,0,0,46.37,47h0l0,.56h.94v-5a1.63,1.63,0,0,0-.44-1.27A2.09,2.09,0,0,0,45.55,40.93Zm-5.87,6.79H40a2.2,2.2,0,0,0,1.46-.4A1.65,1.65,0,0,0,41.88,46v-.45h-1v.38a1.07,1.07,0,0,1-.22.75,1,1,0,0,1-.73.23h-.19a1,1,0,0,1-.74-.23,1.12,1.12,0,0,1-.21-.75V42.71A1.13,1.13,0,0,1,39,42a1,1,0,0,1,.74-.23H40a1,1,0,0,1,.73.23,1.08,1.08,0,0,1,.22.76v.37h1v-.45a1.66,1.66,0,0,0-.46-1.31A2.25,2.25,0,0,0,40,40.93h-.28a2.1,2.1,0,0,0-1.44.41,1.73,1.73,0,0,0-.48,1.39v3.18a1.77,1.77,0,0,0,.48,1.4A2.15,2.15,0,0,0,39.68,47.72Zm-4.53-.13h1V41.05h-1Zm-4.14,0h1V43.12c0-.73.45-1.1,1.34-1.1a2.48,2.48,0,0,1,.68.07V41l-.39,0a1.94,1.94,0,0,0-1,.24,1.69,1.69,0,0,0-.67.68h0l0-.83H31Zm-4-.71a1,1,0,0,1-.72-.23,1,1,0,0,1-.22-.74V42.78a1.15,1.15,0,0,1,.22-.78,1,1,0,0,1,.76-.24h.42a.84.84,0,0,1,.67.23,1,1,0,0,1,.21.69V46a1,1,0,0,1-.2.7.87.87,0,0,1-.68.22Zm.29.84h.47A1.72,1.72,0,0,0,29,47.34a1.68,1.68,0,0,0,.38-1.23V42.53A1.67,1.67,0,0,0,29,41.3a1.69,1.69,0,0,0-1.23-.37h-.4a1.4,1.4,0,0,0-1.29.63h0V38.64h-1v9H26l0-.57h0a1.21,1.21,0,0,0,.49.51A1.6,1.6,0,0,0,27.32,47.72Zm-5-3.06v1.23a1.09,1.09,0,0,1-.24.77,1,1,0,0,1-.77.26H21a.88.88,0,0,1-.68-.23,1.1,1.1,0,0,1-.2-.73v-.35a.8.8,0,0,1,1-1Zm-.8-3.73H21a2,2,0,0,0-1.35.36,1.52,1.52,0,0,0-.41,1.2V43h.94v-.46a.84.84,0,0,1,.2-.62,1,1,0,0,1,.68-.2h.35a.94.94,0,0,1,.71.22.89.89,0,0,1,.21.65v1.34H20.82a1.82,1.82,0,0,0-1.3.4,1.77,1.77,0,0,0-.42,1.32v.4a1.79,1.79,0,0,0,.39,1.26,1.69,1.69,0,0,0,1.25.41h.37A1.32,1.32,0,0,0,22.38,47h0l0,.56h.93v-5a1.62,1.62,0,0,0-.43-1.27A2.09,2.09,0,0,0,21.56,40.93Zm-5.47,6.66h1V41.85h1.23v-.8H17.11v-.92a.76.76,0,0,1,.22-.6,1.08,1.08,0,0,1,.68-.18,2,2,0,0,1,.44,0v-.8a3.53,3.53,0,0,0-.73-.09,1.83,1.83,0,0,0-1.2.36A1.39,1.39,0,0,0,16.09,40v1h-.87v.8h.87ZM12,41.7h.27a1,1,0,0,1,.77.24,1.17,1.17,0,0,1,.22.79v1.09H11V42.73a1.17,1.17,0,0,1,.22-.79A1,1,0,0,1,12,41.7Zm2.26,2.85V42.69a1.74,1.74,0,0,0-.47-1.35,2.2,2.2,0,0,0-1.48-.41H12a2.77,2.77,0,0,0-1.2.22,1.21,1.21,0,0,0-.61.67,3,3,0,0,0-.16,1v3.1A2.1,2.1,0,0,0,10.24,47a1.33,1.33,0,0,0,.68.54,2.79,2.79,0,0,0,1,.16h.44a2.19,2.19,0,0,0,1.43-.38,1.64,1.64,0,0,0,.44-1.28v-.5h-1V46a1,1,0,0,1-.21.71,1,1,0,0,1-.71.21H12a1,1,0,0,1-.76-.24A1.12,1.12,0,0,1,11,45.9V44.55Zm-8.19,3h1V43.12c0-.73.45-1.1,1.34-1.1a2.48,2.48,0,0,1,.68.07V41l-.39,0a2,2,0,0,0-1,.24,1.69,1.69,0,0,0-.67.68h0l0-.83h-1ZM3.65,40.71V42.4a1.39,1.39,0,0,1-.26.94,1.16,1.16,0,0,1-.89.29H1.11V39.55H2.47a1.28,1.28,0,0,1,.91.26A1.24,1.24,0,0,1,3.65,40.71Zm31.52-1.33h1v1.06h-1Zm90.9,0h1v1.06h-1Zm11.41,0h1v1.06h-1ZM2.57,38.64H0v9H1.11V44.53H2.56a3.49,3.49,0,0,0,1.14-.15A1.48,1.48,0,0,0,4.34,44a1.85,1.85,0,0,0,.32-.61,3.12,3.12,0,0,0,.12-1V40.7a2,2,0,0,0-.54-1.59A2.52,2.52,0,0,0,2.57,38.64Z"/></svg>