<svg id="katman_1" data-name="katman 1" xmlns="http://www.w3.org/2000/svg" viewBox="0 0 55.79 40"><defs><style>.cls-1{fill:#252b5b;}.cls-2{fill:#e83a64;}</style></defs><path class="cls-1" d="M27.17,11.33A9,9,0,0,1,29.52,18V31.33H23.9V18.65c0-2.92-1.7-4.49-4.32-4.49-2.92,0-4.79,1.79-4.79,5.41V31.33H9.17V9.54h5.62V12c1.35-2,3.53-3.05,6.49-3.05A7.75,7.75,0,0,1,27.17,11.33Z"/><path class="cls-1" d="M46.64,14.87h-4.9v9c0,2.34,1.69,2.38,4.9,2.21v5.06C39,32,36.16,29.81,36.16,23.88v-9H32.39V9.5h3.77V5.13l5.58-1.69V9.5h4.9Z"/><path class="cls-1" d="M.65,31.33V9.54H6.28V31.33Z"/><path class="cls-2" d="M0,3.49A3.52,3.52,0,0,1,3.44,0,3.53,3.53,0,0,1,6.93,3.49,3.49,3.49,0,0,1,3.44,6.93,3.48,3.48,0,0,1,0,3.49Z"/><path class="cls-1" d="M49.51,31.33V9.54h5.62V31.33Z"/><path class="cls-2" d="M48.86,3.49a3.47,3.47,0,1,1,6.93,0,3.47,3.47,0,0,1-6.93,0Z"/></svg>