<svg id="katman_1" data-name="katman 1" xmlns="http://www.w3.org/2000/svg" viewBox="0 0 24.24 34.03"><defs><style>.cls-1{fill:#e63c65;}.cls-2{fill:#e52421;}</style></defs><path class="cls-1" d="M12.12,0A2.28,2.28,0,0,0,9.84,2.28V12.41a2.29,2.29,0,0,0,4.57,0V2.28A2.29,2.29,0,0,0,12.12,0Z"/><path class="cls-1" d="M19.83,3.89a2.16,2.16,0,1,0-2.75,3.33,7.8,7.8,0,0,1-5,13.82H12A7.8,7.8,0,0,1,7.17,7.21,2.11,2.11,0,0,0,8,5.55,2.16,2.16,0,0,0,4.42,3.88a12.12,12.12,0,1,0,15.41,0Z"/><polygon class="cls-2" points="19.71 2.63 12.31 2.63 14.42 5.58 19.84 14.11 15.29 20.42 11.76 25.34 13.05 25.58 24.24 25.58 24.24 2.63 19.71 2.63"/></svg>