<svg id="katman_1" data-name="katman 1" xmlns="http://www.w3.org/2000/svg" viewBox="0 0 23.31 31.11"><defs><style>.cls-1{fill:#252b5b;}.cls-2{fill:#e83a64;}</style></defs><path class="cls-1" d="M17.65,11c0,.19,0,.36,0,.55A6,6,0,0,1,16,16a5.85,5.85,0,0,1-4.31,1.7A5.86,5.86,0,0,1,7.32,16a6,6,0,0,1-.66-.84L0,17.64V31.11H5.62V19.83A8.41,8.41,0,0,0,12.68,23a9.85,9.85,0,0,0,7.5-3.31,11.55,11.55,0,0,0,3.13-8.2,12.88,12.88,0,0,0-.26-2.6Z"/><path class="cls-2" d="M5.76,10.12a5.8,5.8,0,0,1,5.88-4.76,5.79,5.79,0,0,1,3.62,1.16L21,4.34a9.46,9.46,0,0,0-.82-1A9.86,9.86,0,0,0,12.68,0,8.41,8.41,0,0,0,5.62,3.18V.61H0V12.3Z"/></svg>